<?xml version="1.0" encoding="UTF-8"?>
<svg width="33px" height="18px" viewBox="0 0 33 18" version="1.1" xmlns="http://www.w3.org/2000/svg" xmlns:xlink="http://www.w3.org/1999/xlink">
    <title>5AEC50CF-86CB-4417-8BD3-6B98F343E1BD</title>
    <g id="Brewer-CLP" stroke="none" stroke-width="1" fill="none" fill-rule="evenodd">
        <g id="shipping-icon" transform="translate(-6.000000, -466.000000)" fill="#68676B" fill-rule="nonzero">
            <g id="Card/Elements/Free-Shipping" transform="translate(6.000000, 462.000000)">
                <g id="Icon/ShipsBy" transform="translate(16.909091, 13.000000) scale(-1, 1) translate(-16.909091, -13.000000) translate(0.909091, 4.000000)">
                    <path d="M19.8793501,1.10454545 C20.7824799,1.10454545 21.4976459,1.86977158 21.558127,2.81021519 L21.5622726,2.93948815 L21.5615455,3.57954545 L25.091191,3.57958393 C25.6541342,3.57958393 26.167206,3.87147188 26.4554844,4.3473045 L26.5179402,4.46032819 L28.6924416,8.79772148 C28.7445714,8.90170122 28.7888149,9.0096785 28.8248768,9.12038616 C28.8535384,9.17286055 28.8730519,9.23070388 28.8821236,9.29195069 L28.8884919,9.35651398 C28.9088177,9.45117185 28.9233508,9.54710249 28.9319219,9.64357875 L28.9409099,9.82034051 L28.9787864,12.9110373 C28.9837942,13.339 28.8196796,13.7453524 28.5190657,14.0495722 C28.2516633,14.3204739 27.9023887,14.4841872 27.5272808,14.5172234 L27.3855138,14.5234407 L26.6089091,14.5227273 L26.5889486,14.6337149 C26.3125048,15.9386594 25.1846018,16.9323584 23.8160215,17.0041757 L23.657075,17.0083364 C22.2174383,17.0083364 21.0122438,15.9889014 20.7251948,14.6337349 L20.7040909,14.5227273 L15.8555455,14.5227273 L15.8358166,14.6337149 C15.5593728,15.9386594 14.4314698,16.9323584 13.0628895,17.0041757 L12.903943,17.0083364 C11.4643063,17.0083364 10.2591118,15.9889014 9.97206283,14.6337349 L9.95154545,14.5227273 L8.78669166,14.5234407 C7.88351842,14.5234407 7.16839215,13.7581728 7.10791458,12.8175738 L7.1037692,12.6882789 C7.1037692,12.3945639 7.34187231,12.1564608 7.63558738,12.1564608 C7.90260109,12.1564608 8.12365449,12.3532402 8.16163929,12.6096907 L8.16740557,12.6882789 C8.16740557,13.0932331 8.41786282,13.407974 8.71228868,13.4539995 L8.78669166,13.4598043 L10.0063636,13.4590909 L10.099662,13.0232362 C10.4765418,11.8984725 11.6150477,11.1270384 12.903943,11.1270384 C14.1367136,11.1270384 15.2317757,11.8327647 15.6693479,12.932736 L15.7248927,13.0851465 L15.8015455,13.4590909 L20.5216606,13.4597365 C20.5140899,13.4348977 20.5082883,13.4092875 20.5044025,13.3830529 L20.4986362,13.3044647 L20.4986362,2.93948815 C20.4986362,2.53471563 20.2481666,2.22000769 19.9537503,2.17398619 L19.8793501,2.16818182 L8.78669166,2.16818182 C8.48638502,2.16818182 8.21281491,2.45175341 8.17250417,2.84027473 L8.16740557,2.93948815 C8.16740557,3.23320322 7.92930246,3.47130633 7.63558738,3.47130633 C7.34187231,3.47130633 7.1037692,3.23320322 7.1037692,2.93948815 C7.1037692,1.98433471 7.77966863,1.17758017 8.66474649,1.10923318 L8.78669166,1.10454545 L19.8793501,1.10454545 Z M23.657075,12.078412 C22.8469474,12.078412 22.1323566,12.5850832 21.8505036,13.324463 L21.8053256,13.4573017 C21.7753292,13.5572752 21.717767,13.6432439 21.6424495,13.7079086 L21.6749406,13.7674214 C21.706659,13.8355507 21.7243691,13.9115184 21.7243691,13.9916225 L21.7241989,14.0057627 C21.723931,15.0770421 22.591589,15.9447 23.657075,15.9447 C24.6780354,15.9447 25.5175599,15.1477644 25.5857478,14.1436534 L25.590219,14.011556 C25.5880034,13.9469328 25.5972389,13.8847554 25.6160626,13.8269247 L25.5086357,13.4574025 C25.2651034,12.6463281 24.5147317,12.078412 23.657075,12.078412 Z M12.903943,12.1906748 C12.1102857,12.1906748 11.4215038,12.6257492 11.1669168,13.1937146 L11.1243504,13.3016917 L10.971,14.0301818 L10.9752696,14.1436629 C11.0434473,15.1478405 11.8828522,15.9447 12.903943,15.9447 C13.9249034,15.9447 14.7644279,15.1477644 14.8326158,14.1436534 L14.8360909,14.0432727 L14.6997347,13.3612769 C14.4718904,12.6817845 13.7471436,12.1906748 12.903943,12.1906748 Z M25.091191,4.64318182 L21.5615455,4.64318182 L21.5615455,11.8718182 L21.6224066,11.8129979 C22.1231361,11.3496698 22.7788462,11.0585451 23.4916203,11.0193197 L23.657075,11.0147756 C24.9325314,11.0147756 26.0526713,11.8223276 26.4769796,12.9992932 L26.5283336,13.1548694 L26.6170909,13.4590909 L27.3855138,13.4598043 C27.5292725,13.4598043 27.6610942,13.4046881 27.7622893,13.3021689 C27.8430965,13.2203923 27.893518,13.1192082 27.9095746,13.0085328 L27.9151114,12.9239015 L27.8779091,9.90163636 L23.7272727,9.90235707 C23.460259,9.90235707 23.2392056,9.70557764 23.2012208,9.44912708 L23.1954545,9.37053888 L23.1954545,6.06431203 C23.1954545,5.77059696 23.4335577,5.53249385 23.7272727,5.53249385 C23.9942864,5.53249385 24.2153398,5.72927328 24.2533246,5.98572384 L24.2590909,6.06431203 L24.2582727,8.838 L27.5228182,8.838 L25.567195,4.93719917 C25.4886868,4.78075027 25.3448161,4.676515 25.1769388,4.64992633 L25.091191,4.64318182 Z M8.8933331,10.8 C9.18704817,10.8 9.42515128,11.0381031 9.42515128,11.3318182 C9.42515128,11.5988319 9.22837185,11.8198853 8.97192129,11.8578701 L8.8933331,11.8636364 L2.85844283,11.8636364 C2.56472776,11.8636364 2.32662464,11.6255333 2.32662464,11.3318182 C2.32662464,11.0648045 2.52340407,10.8437511 2.77985463,10.8057663 L2.85844283,10.8 L8.8933331,10.8 Z M11.3478782,8.46818182 C11.6415933,8.46818182 11.8796964,8.70628493 11.8796964,9 C11.8796964,9.2670137 11.6829169,9.4880671 11.4264664,9.52605191 L11.3478782,9.53181818 L3.67662464,9.53181818 C3.38290957,9.53181818 3.14480646,9.29371507 3.14480646,9 C3.14480646,8.7329863 3.34158589,8.5119329 3.59803645,8.47394809 L3.67662464,8.46818182 L11.3478782,8.46818182 Z M8.8933331,6.01363636 C9.18704817,6.01363636 9.42515128,6.25173947 9.42515128,6.54545455 C9.42515128,6.81246825 9.22837185,7.03352165 8.97192129,7.07150645 L8.8933331,7.07727273 L2.85844283,7.07727273 C2.56472776,7.07727273 2.32662464,6.83916962 2.32662464,6.54545455 C2.32662464,6.27844084 2.52340407,6.05738744 2.77985463,6.01940264 L2.85844283,6.01363636 L8.8933331,6.01363636 Z M11.3478782,3.89613021 C11.6415933,3.89613021 11.8796964,4.13423332 11.8796964,4.4279484 C11.8796964,4.6949621 11.6829169,4.9160155 11.4264664,4.9540003 L11.3478782,4.95976658 L3.67662464,4.95976658 C3.38290957,4.95976658 3.14480646,4.72166347 3.14480646,4.4279484 C3.14480646,4.16093469 3.34158589,3.93988129 3.59803645,3.90189649 L3.67662464,3.89613021 L11.3478782,3.89613021 Z" id="Combined-Shape"></path>
                </g>
            </g>
        </g>
    </g>
</svg>