<?xml version="1.0" encoding="UTF-8"?>
<svg width="21px" height="20px" viewBox="0 0 21 20" version="1.1" xmlns="http://www.w3.org/2000/svg" xmlns:xlink="http://www.w3.org/1999/xlink">
    <!-- Generator: Sketch 53.2 (72643) - https://sketchapp.com -->
    <title>Icon-Search@3x</title>
    <desc>Created with Sketch.</desc>
    <g id="Header-Footer" stroke="none" stroke-width="1" fill="none" fill-rule="evenodd">
        <g id="2b-Menu-Default" transform="translate(-298.000000, -78.000000)" fill="#000000" fill-rule="nonzero">
            <g id="Icon-Search" transform="translate(298.000000, 78.000000)">
                <path d="M20.6467971,18.3438386 L15.4655653,13.1850364 C15.4061838,13.126304 15.3392815,13.0756265 15.2665891,13.0343148 C17.7794755,9.40401285 17.0078672,4.45169255 13.508419,1.75006408 C10.0089708,-0.951564397 4.99967847,-0.46218934 2.0943531,2.86514357 C-0.810972272,6.19247649 -0.601121553,11.1996768 2.57251444,14.2744427 C5.74615044,17.3492087 10.7789761,17.4213566 14.0402028,14.4388375 C14.0641694,14.4698233 14.0900245,14.4993144 14.1176221,14.5271443 L19.2988539,19.6859466 C19.5396379,19.9257055 19.8905996,20.0193474 20.2195295,19.9315966 C20.5484595,19.8438459 20.8053829,19.5880347 20.8935152,19.2605286 C20.9816475,18.9330226 20.8875985,18.5835802 20.6467971,18.3438386 L20.6467971,18.3438386 Z M8.40653625,14.7308898 C4.85744981,14.7308898 1.98034679,11.8662417 1.98034679,8.33251932 C1.98034679,4.79879689 4.85744981,1.93414886 8.40653625,1.93414886 C11.9556227,1.93414886 14.8327257,4.79879689 14.8327257,8.33251932 C14.828701,11.8645825 11.9539517,14.7268855 8.40653168,14.7308909 L8.40653625,14.7308898 Z" id="Shape"></path>
            </g>
        </g>
    </g>
</svg>