<svg xmlns="http://www.w3.org/2000/svg" xmlns:xlink="http://www.w3.org/1999/xlink" width="24" height="24" viewBox="0 0 24 24" version="1.1">
    <!-- Generator: Sketch 55 (78076) - https://sketchapp.com -->
    <title>Fill 4</title>
    <desc>Created with Sketch.</desc>
    <g id="Symbols" stroke="none" stroke-width="1" fill="none" fill-rule="evenodd">
        <g id="sale" transform="translate(-255.000000, -18.000000)" fill="#000">
            <path d="M275.403181,23.7689148 C274.802677,24.3692223 273.829932,24.3698074 273.230014,23.7697925 C272.630096,23.1700701 272.630388,22.1970571 273.230892,21.5967496 C273.831395,20.9964421 274.804141,20.995857 275.404059,21.595872 C276.003977,22.1955944 276.003392,23.1686073 275.403181,23.7689148 L275.403181,23.7689148 Z M266.662812,36.7700184 L264.161007,34.2684447 L265.006745,33.4229824 L267.507965,35.9245561 L266.662812,36.7700184 Z M262.731446,32.8390576 L260.229933,30.3374839 L261.075379,29.4917291 L263.577184,31.9933027 L262.731446,32.8390576 Z M278.990691,28.6611867 L278.222211,20.6205186 C278.128565,19.6437025 277.35628,18.8710845 276.379438,18.7777619 L268.338778,18.0092396 C267.730081,17.9513152 267.126944,18.1678003 266.694125,18.6007706 L258.439251,26.8555835 L259.645818,28.062342 L258.800665,28.9078042 L257.593805,27.7010458 L255.600906,29.6938794 C254.800235,30.4945819 254.79965,31.7917375 255.599443,32.5915624 L264.40829,41.4007528 C265.208084,42.2002851 266.50537,42.1997 267.305749,41.39929 L269.29894,39.4064564 L268.092373,38.199698 L268.937526,37.3539432 L270.144386,38.5607016 L278.398967,30.3058888 C278.831786,29.873211 279.048927,29.269978 278.990691,28.6611867 L278.990691,28.6611867 Z" id="Fill-4"/>
        </g>
    </g>
</svg>