<svg xmlns="http://www.w3.org/2000/svg" width="32" height="31" aria-hidden="true" class="support-icon"><g fill="none" fill-rule="evenodd"><path stroke="#333" stroke-linecap="round" stroke-width="2" d="M13.606 29.692v-6.906c0-.347-.146-.677-.402-.911l-4.05-3.77c-.511-.475-1.356-.445-1.966.222-.52.514-.663 1.463-.138 1.97l2.48 2.493"></path><path stroke="#333" stroke-linecap="round" stroke-width="2" d="M6.621 18.328 5.132 17.26c-.177-.127-.36-.421-.346-.824l-.139-3.39c0-.842-.812-1.527-1.655-1.527h0c-.842 0-1.526.683-1.526 1.526l-.247 6.767c0 .484.203.945.56 1.272l6.877 6.3-.222 2.569M17.949 29.692v-6.906c0-.347.146-.677.402-.911l4.05-3.77c.51-.475 1.356-.445 1.966.222.519.514.663 1.463.138 1.97l-2.48 2.493"></path><path stroke="#333" stroke-linecap="round" stroke-width="2" d="m24.933 18.328 1.489-1.068c.177-.127.36-.421.346-.824l.139-3.39c0-.842.812-1.527 1.655-1.527h0c.843 0 1.526.683 1.526 1.526l.247 6.767c0 .484-.203.945-.56 1.272l-6.877 6.3.222 2.569"></path><path stroke="#F9C606" stroke-linecap="round" stroke-linejoin="round" d="M24.645 9.967a8.77 8.77 0 0 0-8.77-8.77 8.77 8.77 0 1 0 0 17.539 8.77 8.77 0 0 0 8.77-8.77"></path><path fill="#000" d="M16.059 16.156a.97.97 0 0 1-.718-.298 1 1 0 0 1-.292-.721q0-.416.292-.705a.98.98 0 0 1 .718-.29q.409 0 .702.29a.95.95 0 0 1 .293.705.99.99 0 0 1-.293.72.95.95 0 0 1-.702.299m-1.051-3.641q0-.905.453-1.672.454-.766 1.256-1.2a1.5 1.5 0 0 0 .617-.612q.225-.405.225-.894 0-.699-.498-1.182a1.64 1.64 0 0 0-1.186-.486 1.63 1.63 0 0 0-1.19.486 1.6 1.6 0 0 0-.494 1.182h-1.956q0-.995.492-1.821.494-.826 1.319-1.315a3.54 3.54 0 0 1 1.829-.488q1.002 0 1.829.488.826.49 1.318 1.315.493.826.493 1.82 0 1.027-.501 1.897a3.4 3.4 0 0 1-1.374 1.336q-.674.36-.675 1.146z"></path></g></svg>
