<svg xmlns="http://www.w3.org/2000/svg" fill="none" viewBox="0 0 141 24" class="display-image"><path fill="#462916" d="M133.221.584a2.079 2.079 0 1 0 0 4.158 2.079 2.079 0 0 0 0-4.158m0 3.854a1.776 1.776 0 0 1-1.775-1.775c0-.98.796-1.775 1.775-1.775s1.775.796 1.775 1.775c0 .98-.796 1.775-1.775 1.775m.851-2.155c0-.37-.248-.588-.709-.588h-.819V3.63h.385v-.77h.269l.424.77h.452l-.464-.788c.333-.054.462-.304.462-.558zm-.716.241h-.427v-.473h.427c.205 0 .319.074.319.234s-.11.241-.319.241zM30.637.584h15.725v4.763h-9.95v4.32h8.645v4.502h-8.645v4.489h9.95v4.763H30.637zm88.337 13.894h5.384v3.528c-1.044.458-2.513.652-3.622.652-3.915 0-6.589-2.806-6.589-6.59 0-3.36 2.088-6.721 6.915-6.721 1.86 0 3.687.783 4.959 1.795l3.033-4.013c-2.315-1.762-4.728-2.903-8.188-2.903-7.666 0-12.528 5.416-12.528 11.777 0 6.362 5.123 11.778 12.397 11.778 2.773 0 6.035-.88 9.07-3.557V9.974h-10.831v4.5040000000000004m-20.968 8.943h5.774V.584h-5.774zm-33.664-8.71c0 2.773-1.794 4.042-3.85 4.042s-3.818-1.269-3.818-4.042V.584H50.9v14.127c0 5.905 4.372 9.07 9.592 9.07s9.625-3.165 9.625-9.07V.584h-5.775zM26.886.577h-6.608L13.575 12l6.709 11.42h6.608L19.98 12zm61.942 14.337 5.15 8.509H87.37l-4.659-7.931h-1.95v7.927h-5.775V.582h10.537c4.959 0 7.666 3.557 7.666 7.699 0 3.1-1.616 5.562-4.361 6.631zm-8.07-3.76h4.08c1.565 0 2.544-1.208 2.544-2.806s-.979-2.871-2.545-2.871h-4.079zM9.174.219a3.474 3.474 0 1 0 0 6.947 3.474 3.474 0 0 0 0-6.947m0 8.307a3.474 3.474 0 1 0 0 6.947 3.474 3.474 0 0 0 0-6.947m0 8.305A3.474 3.474 0 0 0 5.7 20.307a3.474 3.474 0 1 0 3.474-3.474z"></path></svg>
